<?xml version="1.0" standalone="no"?>
<!DOCTYPE svg PUBLIC "-//W3C//DTD SVG 20010904//EN"
 "http://www.w3.org/TR/2001/REC-SVG-20010904/DTD/svg10.dtd">
<svg version="1.0" xmlns="http://www.w3.org/2000/svg"
 width="512.000000pt" height="512.000000pt" viewBox="0 0 512.000000 512.000000"
 preserveAspectRatio="xMidYMid meet">
<metadata>
Created by potrace 1.14, written by Peter Selinger 2001-2017
</metadata>
<g transform="translate(0.000000,512.000000) scale(0.100000,-0.100000)"
fill="#000000" stroke="none">
<path d="M2515 5099 c-235 -126 -506 -383 -679 -644 -131 -198 -258 -493 -291
-677 -4 -21 -10 -38 -12 -38 -3 0 -36 20 -72 43 -394 259 -876 406 -1349 411
-67 1 -76 -2 -94 -24 -19 -24 -20 -34 -14 -185 3 -88 8 -171 10 -185 2 -14 7
-47 11 -75 44 -346 190 -732 393 -1040 91 -138 134 -195 248 -321 l82 -91 -61
-29 c-264 -123 -480 -310 -639 -553 -26 -40 -48 -83 -48 -95 0 -24 69 -141
126 -214 69 -87 239 -246 329 -308 161 -110 324 -182 520 -230 181 -44 360
-49 590 -19 53 7 245 61 301 85 24 11 44 18 45 17 1 -4 7 -35 18 -95 53 -284
228 -559 476 -746 83 -63 125 -86 158 -86 44 0 199 112 305 220 110 112 220
290 274 445 21 59 45 150 64 242 l4 22 45 -19 c185 -79 455 -118 684 -98 453
39 863 285 1122 671 32 49 59 98 59 109 0 46 -130 226 -250 347 -120 120 -244
208 -412 293 l-87 43 52 55 c281 296 493 674 606 1082 32 113 32 116 55 253
24 145 25 162 32 325 6 145 5 157 -13 179 -18 23 -28 25 -99 25 -124 0 -250
-12 -419 -40 -65 -10 -235 -54 -330 -84 -210 -68 -500 -210 -634 -312 -13 -10
-27 -18 -31 -18 -4 0 -15 32 -25 71 -17 72 -49 176 -64 214 -5 11 -23 56 -41
100 -49 119 -166 328 -227 405 -6 8 -34 44 -62 79 -136 172 -346 358 -527 468
-72 44 -84 46 -129 22z m103 -171 c358 -243 613 -570 754 -963 170 -475 146
-999 -66 -1450 -106 -224 -221 -389 -388 -556 -98 -98 -272 -236 -334 -266
-32 -16 -32 -16 -130 55 -342 242 -589 573 -719 964 -87 262 -111 468 -92 774
32 490 305 1005 702 1325 84 67 202 149 216 149 6 0 31 -14 57 -32z m-2348
-883 c87 -6 170 -17 240 -30 14 -2 36 -6 50 -9 241 -40 610 -195 845 -354
l100 -68 -4 -69 c-13 -223 -3 -413 29 -575 96 -480 324 -874 693 -1194 l79
-68 -59 7 c-32 4 -67 9 -78 11 -11 2 -36 7 -55 10 -78 14 -241 58 -345 93
-575 199 -1058 613 -1346 1155 -136 256 -219 525 -263 846 -3 19 -8 83 -11
142 -5 97 -4 107 12 110 10 3 23 3 28 2 6 -2 44 -5 85 -9z m4706 -77 c-6 -88
-16 -201 -21 -223 -1 -5 -5 -32 -9 -60 -55 -352 -221 -740 -447 -1045 -249
-336 -605 -617 -989 -781 -139 -59 -348 -125 -460 -144 -19 -3 -53 -10 -75
-15 -49 -11 -162 -23 -155 -17 3 2 35 29 71 60 233 195 435 466 558 746 144
326 190 616 168 1056 -2 40 -2 40 92 103 198 134 450 251 670 312 62 17 123
33 135 36 173 34 233 43 356 50 52 4 97 8 99 10 11 10 12 -2 7 -88z m-4028
-1871 c218 -179 468 -321 744 -421 107 -38 311 -95 403 -111 75 -13 170 -25
247 -31 45 -4 84 -8 86 -9 2 -1 -24 -36 -56 -76 -116 -145 -268 -266 -436
-351 -208 -105 -392 -149 -621 -150 -211 -1 -399 41 -594 135 -180 86 -369
238 -484 390 -99 130 -96 111 -26 208 115 157 305 321 469 404 71 36 161 74
178 75 7 0 47 -29 90 -63z m3405 29 c157 -69 302 -169 422 -290 80 -81 173
-200 181 -233 14 -54 -219 -310 -381 -418 -189 -125 -372 -194 -610 -230 -48
-7 -289 -8 -313 -1 -9 2 -38 7 -63 10 -179 23 -409 118 -589 245 -117 83 -328
306 -298 316 7 2 47 7 88 10 82 6 142 12 180 20 14 3 39 8 55 11 408 73 848
278 1155 538 36 30 72 55 80 55 8 1 50 -15 93 -33z m-1753 -719 c76 -113 300
-315 430 -388 44 -25 46 -33 30 -120 -6 -30 -13 -66 -15 -82 -9 -49 -64 -188
-101 -256 -84 -153 -196 -280 -336 -380 l-46 -33 -57 38 c-70 46 -186 159
-244 237 -109 148 -189 349 -207 518 l-6 55 68 42 c143 85 294 224 397 364 23
31 44 57 47 57 3 0 21 -23 40 -52z"/>
</g>
</svg>
